<?xml version="1.0" encoding="UTF-8"?>
<svg xmlns="http://www.w3.org/2000/svg" xmlns:xlink="http://www.w3.org/1999/xlink" width="246pt" height="246pt" viewBox="0 0 246 246" version="1.1">
<g id="surface1">
<path style=" stroke:none;fill-rule:nonzero;fill:rgb(0%,0%,0%);fill-opacity:1;" d="M 99.304688 123.050781 L 191.332031 31.019531 C 193.867188 28.492188 195.261719 25.113281 195.261719 21.507812 C 195.261719 17.902344 193.867188 14.523438 191.332031 11.992188 L 183.269531 3.933594 C 180.738281 1.394531 177.355469 0 173.753906 0 C 170.148438 0 166.769531 1.394531 164.238281 3.933594 L 54.664062 113.503906 C 52.121094 116.042969 50.730469 119.4375 50.738281 123.046875 C 50.730469 126.671875 52.121094 130.058594 54.664062 132.601562 L 164.136719 242.066406 C 166.667969 244.605469 170.046875 246 173.652344 246 C 177.257812 246 180.632812 244.605469 183.167969 242.066406 L 191.230469 234.007812 C 196.476562 228.761719 196.476562 220.222656 191.230469 214.976562 Z M 99.304688 123.050781 "/>
</g>
</svg>
