<?xml version="1.0" encoding="UTF-8"?>
<svg xmlns="http://www.w3.org/2000/svg" xmlns:xlink="http://www.w3.org/1999/xlink" width="246pt" height="246pt" viewBox="0 0 246 246" version="1.1">
<g id="surface1">
<path style=" stroke:none;fill-rule:nonzero;fill:rgb(0%,0%,0%);fill-opacity:1;" d="M 191.335938 113.402344 L 81.863281 3.929688 C 79.332031 1.394531 75.953125 0 72.347656 0 C 68.746094 0 65.363281 1.394531 62.832031 3.929688 L 54.769531 11.988281 C 49.523438 17.242188 49.523438 25.777344 54.769531 31.023438 L 146.699219 122.949219 L 54.667969 214.976562 C 52.136719 217.511719 50.738281 220.890625 50.738281 224.492188 C 50.738281 228.097656 52.136719 231.476562 54.667969 234.011719 L 62.730469 242.070312 C 65.265625 244.605469 68.640625 246 72.246094 246 C 75.851562 246 79.230469 244.605469 81.761719 242.070312 L 191.335938 132.5 C 193.875 129.957031 195.269531 126.5625 195.261719 122.953125 C 195.269531 119.332031 193.875 115.941406 191.335938 113.402344 Z M 191.335938 113.402344 "/>
</g>
</svg>
